<svg xmlns="http://www.w3.org/2000/svg" width="69" height="10.819" viewBox="0 0 69 10.819"><defs><style>.a{fill:#f5db27;}</style></defs><g transform="translate(-16 -290)"><path class="a" d="M6.487.375l-1.38,2.8-3.087.45a.676.676,0,0,0-.374,1.154L3.88,6.953l-.528,3.074a.676.676,0,0,0,.98.712L7.093,9.288l2.762,1.452a.676.676,0,0,0,.98-.712l-.528-3.074L12.54,4.777a.676.676,0,0,0-.374-1.154l-3.087-.45L7.7.375a.677.677,0,0,0-1.213,0Z" transform="translate(14.559 290.001)"/><path class="a" d="M6.487.375l-1.38,2.8-3.087.45a.676.676,0,0,0-.374,1.154L3.88,6.953l-.528,3.074a.676.676,0,0,0,.98.712L7.093,9.288l2.762,1.452a.676.676,0,0,0,.98-.712l-.528-3.074L12.54,4.777a.676.676,0,0,0-.374-1.154l-3.087-.45L7.7.375a.677.677,0,0,0-1.213,0Z" transform="translate(28.983 290.001)"/><path class="a" d="M6.487.375l-1.38,2.8-3.087.45a.676.676,0,0,0-.374,1.154L3.88,6.953l-.528,3.074a.676.676,0,0,0,.98.712L7.093,9.288l2.762,1.452a.676.676,0,0,0,.98-.712l-.528-3.074L12.54,4.777a.676.676,0,0,0-.374-1.154l-3.087-.45L7.7.375a.677.677,0,0,0-1.213,0Z" transform="translate(43.407 290.001)"/><path class="a" d="M6.487.375l-1.38,2.8-3.087.45a.676.676,0,0,0-.374,1.154L3.88,6.953l-.528,3.074a.676.676,0,0,0,.98.712L7.093,9.288l2.762,1.452a.676.676,0,0,0,.98-.712l-.528-3.074L12.54,4.777a.676.676,0,0,0-.374-1.154l-3.087-.45L7.7.375a.677.677,0,0,0-1.213,0Z" transform="translate(57.831 290.001)"/><path class="a" d="M6.487.375l-1.38,2.8-3.087.45a.676.676,0,0,0-.374,1.154L3.88,6.953l-.528,3.074a.676.676,0,0,0,.98.712L7.093,9.288l2.762,1.452a.676.676,0,0,0,.98-.712l-.528-3.074L12.54,4.777a.676.676,0,0,0-.374-1.154l-3.087-.45L7.7.375a.677.677,0,0,0-1.213,0Z" transform="translate(72.255 290.001)"/></g></svg>